<svg width="33" height="33" viewBox="0 0 33 33" fill="none" xmlns="http://www.w3.org/2000/svg">
<path d="M4.60008 4.60024L4.60024 4.60008C4.88444 4.31594 5.2699 4.15625 5.67188 4.15625H16.0353H16.0359V5.15625C16.1037 5.15613 16.1708 5.16937 16.2335 5.19519C16.2961 5.22103 16.353 5.25896 16.401 5.30681L4.60008 4.60024ZM4.60008 4.60024C4.31594 4.88444 4.15625 5.2699 4.15625 5.67188V16.0353M4.60008 4.60024L17.4891 29.9975L4.59971 17.1081L4.59879 17.1072C4.4582 16.9662 4.34673 16.799 4.27078 16.6149L4.27062 16.6145C4.19498 16.4309 4.15604 16.2342 4.15625 16.0353M19.1433 30.3275L19.1432 30.3275C18.9576 30.4045 18.7601 30.443 18.5625 30.443C18.3649 30.443 18.1674 30.4045 17.9818 30.3275L17.9817 30.3275C17.7975 30.2511 17.6307 30.1392 17.4903 29.9987L19.1433 30.3275ZM19.1433 30.3275C19.3275 30.2511 19.4943 30.1392 19.6347 29.9987L19.1433 30.3275ZM4.15625 16.0353C4.15625 16.0349 4.15625 16.0345 4.15625 16.0341L5.15625 16.0359H4.15625V16.0353ZM3.0625 16.0359V16.036C3.06247 16.3789 3.13001 16.7184 3.26124 17.0351L3.0625 16.0359ZM3.0625 16.0359V5.67188C3.0625 4.23178 4.23178 3.0625 5.67188 3.0625H16.0359C16.7287 3.0625 17.3933 3.33728 17.8811 3.82659L17.8822 3.82767M3.0625 16.0359L17.8822 3.82767M17.8822 3.82767L30.7726 16.718C30.7726 16.7181 30.7727 16.7182 30.7728 16.7183C31.2616 17.2076 31.5361 17.8709 31.5361 18.5625C31.5361 19.2541 31.2616 19.9174 30.7728 20.4067C30.7727 20.4068 30.7726 20.4069 30.7726 20.407L20.407 30.7726L17.8822 3.82767ZM3.82741 17.8819L3.82767 17.8822L16.718 30.7726C16.7181 30.7726 16.7182 30.7727 16.7183 30.7728C17.2076 31.2616 17.8709 31.5361 18.5625 31.5361C19.2541 31.5361 19.9174 31.2616 20.4067 30.7728L3.82741 17.8819ZM3.82741 17.8819C3.58492 17.6396 3.39253 17.3519 3.26126 17.0351L3.82741 17.8819ZM19.6359 29.9975L29.9975 19.6359L19.6359 29.9975ZM11.6237 11.6237C11.6237 11.6237 11.6237 11.6237 11.6237 11.6237C11.823 11.4244 12.0932 11.3125 12.375 11.3125C12.6568 11.3125 12.927 11.4244 13.1263 11.6237C13.1263 11.6237 13.1263 11.6237 13.1263 11.6237H11.6237ZM13.1263 13.1263C12.927 13.3256 12.6568 13.4375 12.375 13.4375C12.0932 13.4375 11.823 13.3256 11.6237 13.1263C11.6237 13.1263 11.6237 13.1263 11.6237 13.1263L13.1263 13.1263Z" fill="white" stroke="white" stroke-width="2"/>
</svg>
